<svg width="60" height="60" viewBox="0 0 60 60" fill="none" xmlns="http://www.w3.org/2000/svg">
<g clip-path="url(#clip0_119_516)">
<path d="M43.125 1.875H9.375C7.38588 1.875 5.47822 2.66518 4.0717 4.0717C2.66518 5.47822 1.875 7.38588 1.875 9.375V54.375C1.875 55.3696 2.27009 56.3234 2.97335 57.0266C3.67661 57.7299 4.63044 58.125 5.625 58.125H9.2" stroke="#FB471E" stroke-width="3" stroke-linecap="round" stroke-linejoin="round"/>
<path d="M9.375 13.75H27.5" stroke="#FB471E" stroke-width="3" stroke-linecap="round" stroke-linejoin="round"/>
<path d="M9.375 23.75H21.525" stroke="#FB471E" stroke-width="3" stroke-linecap="round" stroke-linejoin="round"/>
<path d="M37.5 24.375V7.5C37.5 6.00816 38.0926 4.57742 39.1475 3.52252C40.2024 2.46763 41.6332 1.875 43.125 1.875C44.6168 1.875 46.0476 2.46763 47.1025 3.52252C48.1574 4.57742 48.75 6.00816 48.75 7.5V13.75H37.5" stroke="#FB471E" stroke-width="3" stroke-linecap="round" stroke-linejoin="round"/>
<path d="M54.3749 49.0249L42.3999 51.4249" stroke="#FB471E" stroke-width="3" stroke-linecap="round" stroke-linejoin="round"/>
<path d="M43.6 37.85L37.95 40.225C37.5081 40.4162 37.0316 40.5149 36.55 40.5149C36.0685 40.5149 35.592 40.4162 35.15 40.225C34.4978 39.9293 33.9424 39.4554 33.5478 38.8577C33.1532 38.2601 32.9355 37.5631 32.9199 36.8472C32.9042 36.1312 33.0911 35.4254 33.4592 34.8111C33.8272 34.1967 34.3614 33.6989 35 33.375L40.65 30.55C41.3466 30.1931 42.1173 30.0047 42.9 30C43.4908 29.994 44.0769 30.1045 44.625 30.325L56.175 35" stroke="#FB471E" stroke-width="3" stroke-linecap="round" stroke-linejoin="round"/>
<path d="M20.5 51.525H24.475L32.1 57.325C32.2786 57.5274 32.4954 57.6925 32.738 57.8109C32.9806 57.9293 33.2442 57.9986 33.5136 58.0149C33.7831 58.0311 34.0531 57.994 34.3082 57.9056C34.5632 57.8173 34.7984 57.6794 35 57.5L45.65 48.7C46.075 48.3567 46.3476 47.8597 46.4084 47.3167C46.4692 46.7738 46.3135 46.2288 45.975 45.8L40 39.325" stroke="#FB471E" stroke-width="3" stroke-linecap="round" stroke-linejoin="round"/>
<path d="M34.3501 33.7751L33.7251 33.2501C32.9398 32.7338 32.0145 32.472 31.0751 32.5001C30.5034 32.5001 29.9363 32.6017 29.4001 32.8001L20.4751 36.5001" stroke="#FB471E" stroke-width="3" stroke-linecap="round" stroke-linejoin="round"/>
<path d="M16.875 53.4H17.625C17.9994 53.4202 18.3741 53.3664 18.7276 53.2415C19.0812 53.1167 19.4066 52.9233 19.6853 52.6725C19.964 52.4217 20.1904 52.1184 20.3517 51.7799C20.5129 51.4414 20.6058 51.0744 20.625 50.7V37.325C20.5799 36.5732 20.239 35.8698 19.6769 35.3686C19.1147 34.8673 18.377 34.609 17.625 34.65H16.875" stroke="#FB471E" stroke-width="3" stroke-linecap="round" stroke-linejoin="round"/>
<path d="M58.125 53.4H57.5C57.1256 53.4202 56.7509 53.3664 56.3974 53.2415C56.0438 53.1167 55.7184 52.9233 55.4397 52.6725C55.161 52.4217 54.9346 52.1184 54.7733 51.7799C54.6121 51.4414 54.5192 51.0744 54.5 50.7V37.325C54.5451 36.5732 54.886 35.8698 55.4481 35.3686C56.0103 34.8673 56.748 34.609 57.5 34.65H58.25" stroke="#FB471E" stroke-width="3" stroke-linecap="round" stroke-linejoin="round"/>
</g>
<defs>
<clipPath id="clip0_119_516">
<rect width="60" height="60" fill="white"/>
</clipPath>
</defs>
</svg>
