<svg width="60" height="60" viewBox="0 0 60 60" fill="none" xmlns="http://www.w3.org/2000/svg">
<path d="M3.10547 45.6987H12.1703V49.3252H18.2143" stroke="#FB471E" stroke-width="3" stroke-linecap="round" stroke-linejoin="round"/>
<path d="M3.08594 27.5679H10.9615V22.7327H15.7967" stroke="#FB471E" stroke-width="3" stroke-linecap="round" stroke-linejoin="round"/>
<path d="M3.08594 38.4498H14.5879M14.5879 38.4498V31.197H19.4231M14.5879 38.4498H26.6757" stroke="#FB471E" stroke-width="3" stroke-linecap="round" stroke-linejoin="round"/>
<path d="M25.467 32.406C24.7995 32.406 24.2583 31.8648 24.2583 31.1973C24.2583 30.5295 24.7995 29.9885 25.467 29.9885" stroke="#FB471E" stroke-width="3"/>
<path d="M25.4668 32.406C26.1345 32.406 26.6755 31.8648 26.6755 31.1973C26.6755 30.5295 26.1345 29.9885 25.4668 29.9885" stroke="#FB471E" stroke-width="3"/>
<path d="M32.7158 23.941C32.0481 23.941 31.5068 23.3998 31.5068 22.7322C31.5068 22.0646 32.0481 21.5234 32.7158 21.5234" stroke="#FB471E" stroke-width="3"/>
<path d="M32.7158 23.941C33.3833 23.941 33.9246 23.3998 33.9246 22.7322C33.9246 22.0646 33.3833 21.5234 32.7158 21.5234" stroke="#FB471E" stroke-width="3"/>
<path d="M24.2581 50.531C23.5905 50.531 23.0493 49.9898 23.0493 49.3223C23.0493 48.6545 23.5905 48.1135 24.2581 48.1135" stroke="#FB471E" stroke-width="3"/>
<path d="M24.2578 50.531C24.9254 50.531 25.4666 49.9898 25.4666 49.3223C25.4666 48.6545 24.9254 48.1135 24.2578 48.1135" stroke="#FB471E" stroke-width="3"/>
<path d="M46.0164 29.9854V22.7327H38.7637" stroke="#FB471E" stroke-width="3" stroke-linecap="round" stroke-linejoin="round"/>
<path d="M47.2254 44.4907V49.3257H37.5552" stroke="#FB471E" stroke-width="3" stroke-linecap="round" stroke-linejoin="round"/>
<path d="M53.8738 44.4905V49.3255C53.8738 51.2493 53.1096 53.094 51.7493 54.454C50.3893 55.8143 48.5446 56.5783 46.6211 56.5783H10.3572C8.43369 56.5783 6.58892 55.8143 5.22877 54.454C3.86862 53.094 3.10449 51.2493 3.10449 49.3255V23.941C3.10449 22.0174 3.86862 20.1727 5.22877 18.8125C6.58892 17.4524 8.43369 16.6882 10.3572 16.6882H46.6211C48.5446 16.6882 50.3893 17.4524 51.7493 18.8125C53.1096 20.1727 53.8738 22.0174 53.8738 23.941V29.985" stroke="#FB471E" stroke-width="3" stroke-linecap="round" stroke-linejoin="round"/>
<path d="M46.6212 16.6882L40.9907 5.4271C40.7777 5.00095 40.483 4.62095 40.123 4.30877C39.7632 3.9966 39.3455 3.75837 38.8935 3.60772C38.4415 3.45707 37.9642 3.39695 37.4892 3.4308C37.014 3.46462 36.55 3.59175 36.124 3.8049L10.3574 16.6882" stroke="#FB471E" stroke-width="3" stroke-linecap="round" stroke-linejoin="round"/>
<path d="M54.2764 44.4906C55.1314 44.4906 55.9512 44.1851 56.5557 43.6409C57.1604 43.0969 57.4999 42.3589 57.4999 41.5896V32.8864C57.4999 32.1169 57.1604 31.3789 56.5557 30.8349C55.9512 30.2909 55.1314 29.9851 54.2764 29.9851H46.2179C44.0807 29.9851 42.0309 30.7494 40.5197 32.1094C39.0082 33.4696 38.1592 35.3144 38.1592 37.2379C38.1592 39.1614 39.0082 41.0061 40.5197 42.3664C42.0309 43.7266 44.0807 44.4906 46.2179 44.4906H54.2764Z" stroke="#FB471E" stroke-width="3" stroke-linecap="round" stroke-linejoin="round"/>
<path d="M46.0173 38.1443C45.5168 38.1443 45.1108 37.7385 45.1108 37.2378C45.1108 36.737 45.5168 36.3313 46.0173 36.3313" stroke="#FB471E" stroke-width="3"/>
<path d="M46.0176 38.1443C46.5181 38.1443 46.9241 37.7385 46.9241 37.2378C46.9241 36.737 46.5181 36.3313 46.0176 36.3313" stroke="#FB471E" stroke-width="3"/>
</svg>
