<svg width="60" height="60" viewBox="0 0 60 60" fill="none" xmlns="http://www.w3.org/2000/svg">
<path d="M8.87365 17.3428C11.0013 16.0272 13.4539 15.3312 15.9555 15.3333C18.88 15.3357 21.7239 16.2916 24.0562 18.0561C26.0443 19.5602 27.568 21.582 28.4685 23.8888H52.6113L57.5 28.7778L52.6113 33.6665H48.9445L45.2777 37.3333L41.611 33.6665H39.1668L35.5 37.3333L31.8333 33.6665H28.4685C27.7197 35.5845 26.5383 37.3105 25.0093 38.7065C23.1619 40.3933 20.8806 41.531 18.4218 41.992C15.9631 42.453 13.4245 42.2188 11.0915 41.3158C8.7586 40.4128 6.72387 38.8768 5.21618 36.8805C3.70848 34.8845 2.78763 32.5073 2.55718 30.0163C2.32673 27.5253 2.79583 25.0195 3.9117 22.7805C5.02758 20.5416 6.746 18.6585 8.87365 17.3428Z" stroke="#FB471E" stroke-width="3" stroke-linecap="round" stroke-linejoin="round"/>
<path d="M13.5109 32.4492C15.536 32.4492 17.1776 30.8077 17.1776 28.7827C17.1776 26.7575 15.536 25.116 13.5109 25.116C11.4859 25.116 9.84424 26.7575 9.84424 28.7827C9.84424 30.8077 11.4859 32.4492 13.5109 32.4492Z" stroke="#FB471E" stroke-width="3" stroke-linecap="round" stroke-linejoin="round"/>
<path d="M20.2202 4.375C20.2202 4.87228 20.4178 5.34919 20.7694 5.70083C21.121 6.05246 21.5979 6.25 22.0952 6.25C22.5925 6.25 23.0694 6.05246 23.421 5.70083C23.7727 5.34919 23.9702 4.87228 23.9702 4.375C23.9702 3.87772 23.7727 3.40081 23.421 3.04917C23.0694 2.69754 22.5925 2.5 22.0952 2.5C21.5979 2.5 21.121 2.69754 20.7694 3.04917C20.4178 3.40081 20.2202 3.87772 20.2202 4.375Z" stroke="#FB471E" stroke-width="3" stroke-linejoin="round"/>
<path d="M13.5098 55.7075C13.5098 55.9538 13.5583 56.1976 13.6525 56.4251C13.7467 56.6525 13.8848 56.8592 14.0589 57.0333C14.2331 57.2075 14.4397 57.3456 14.6672 57.4398C14.8947 57.534 15.1385 57.5825 15.3848 57.5825C15.631 57.5825 15.8748 57.534 16.1023 57.4398C16.3298 57.3456 16.5365 57.2075 16.7106 57.0333C16.8847 56.8592 17.0228 56.6525 17.117 56.4251C17.2113 56.1976 17.2598 55.9538 17.2598 55.7075C17.2598 55.4613 17.2113 55.2175 17.117 54.99C17.0228 54.7625 16.8847 54.5558 16.7106 54.3817C16.5365 54.2076 16.3298 54.0695 16.1023 53.9752C15.8748 53.881 15.631 53.8325 15.3848 53.8325C15.1385 53.8325 14.8947 53.881 14.6672 53.9752C14.4397 54.0695 14.2331 54.2076 14.0589 54.3817C13.8848 54.5558 13.7467 54.7625 13.6525 54.99C13.5583 55.2175 13.5098 55.4613 13.5098 55.7075Z" stroke="#FB471E" stroke-width="3" stroke-linejoin="round"/>
<path d="M53.8325 9.26245C53.8325 9.75973 54.0301 10.2366 54.3817 10.5883C54.7333 10.9399 55.2102 11.1375 55.7075 11.1375C56.2048 11.1375 56.6817 10.9399 57.0333 10.5883C57.385 10.2366 57.5825 9.75973 57.5825 9.26245C57.5825 8.76517 57.385 8.28826 57.0333 7.93663C56.6817 7.585 56.2048 7.38745 55.7075 7.38745C55.2102 7.38745 54.7333 7.585 54.3817 7.93663C54.0301 8.28826 53.8325 8.76517 53.8325 9.26245Z" stroke="#FB471E" stroke-width="3" stroke-linejoin="round"/>
<path d="M53.8325 48.375C53.8325 48.8723 54.0301 49.3492 54.3817 49.7008C54.7333 50.0525 55.2102 50.25 55.7075 50.25C56.2048 50.25 56.6817 50.0525 57.0333 49.7008C57.385 49.3492 57.5825 48.8723 57.5825 48.375C57.5825 47.8777 57.385 47.4008 57.0333 47.0492C56.6817 46.6975 56.2048 46.5 55.7075 46.5C55.2102 46.5 54.7333 46.6975 54.3817 47.0492C54.0301 47.4008 53.8325 47.8777 53.8325 48.375Z" stroke="#FB471E" stroke-width="3" stroke-linejoin="round"/>
<path d="M43.4443 18.9977V11.6644C43.4443 10.3144 44.5388 9.21997 45.8888 9.21997H48.3333" stroke="#FB471E" stroke-width="3" stroke-linecap="round" stroke-linejoin="round"/>
<path d="M29.999 4.33325H32.4435C33.7935 4.33325 34.888 5.42765 34.888 6.77768V18.9999" stroke="#FB471E" stroke-width="3" stroke-linecap="round" stroke-linejoin="round"/>
<path d="M41 39.7778V45.8891C41 47.2391 42.0945 48.3336 43.4445 48.3336H48.3335" stroke="#FB471E" stroke-width="3" stroke-linecap="round" stroke-linejoin="round"/>
<path d="M23.8901 55.6668H28.7791C30.1291 55.6668 31.2236 54.5723 31.2236 53.2223V41" stroke="#FB471E" stroke-width="3" stroke-linecap="round" stroke-linejoin="round"/>
</svg>
