<svg width="60" height="60" viewBox="0 0 60 60" fill="none" xmlns="http://www.w3.org/2000/svg">
<g clip-path="url(#clip0_119_521)">
<path d="M24.375 26.2451C24.375 27.4763 24.6175 28.6953 25.0886 29.8328C25.5598 30.9702 26.2503 32.0037 27.1209 32.8742C27.9914 33.7448 29.0249 34.4353 30.1623 34.9065C31.2998 35.3776 32.5189 35.6201 33.75 35.6201C34.9811 35.6201 36.2002 35.3776 37.3377 34.9065C38.4751 34.4353 39.5086 33.7448 40.3791 32.8742C41.2497 32.0037 41.9402 30.9702 42.4114 29.8328C42.8825 28.6953 43.125 27.4763 43.125 26.2451C43.125 25.014 42.8825 23.7949 42.4114 22.6575C41.9402 21.52 41.2497 20.4865 40.3791 19.616C39.5086 18.7454 38.4751 18.0549 37.3377 17.5837C36.2002 17.1126 34.9811 16.8701 33.75 16.8701C32.5189 16.8701 31.2998 17.1126 30.1623 17.5837C29.0249 18.0549 27.9914 18.7454 27.1209 19.616C26.2503 20.4865 25.5598 21.52 25.0886 22.6575C24.6175 23.7949 24.375 25.014 24.375 26.2451Z" stroke="#FB471E" stroke-width="3" stroke-linecap="round" stroke-linejoin="round"/>
<path d="M46.875 7.49512C46.875 8.98696 47.4676 10.4177 48.5225 11.4726C49.5774 12.5275 51.0082 13.1201 52.5 13.1201C53.9918 13.1201 55.4226 12.5275 56.4775 11.4726C57.5324 10.4177 58.125 8.98696 58.125 7.49512C58.125 6.00327 57.5324 4.57253 56.4775 3.51764C55.4226 2.46275 53.9918 1.87012 52.5 1.87012C51.0082 1.87012 49.5774 2.46275 48.5225 3.51764C47.4676 4.57253 46.875 6.00327 46.875 7.49512Z" stroke="#FB471E" stroke-width="3" stroke-linecap="round" stroke-linejoin="round"/>
<path d="M46.875 39.3701C46.875 40.862 47.4676 42.2927 48.5225 43.3476C49.5774 44.4025 51.0082 44.9951 52.5 44.9951C53.9918 44.9951 55.4226 44.4025 56.4775 43.3476C57.5324 42.2927 58.125 40.862 58.125 39.3701C58.125 37.8783 57.5324 36.4475 56.4775 35.3926C55.4226 34.3378 53.9918 33.7451 52.5 33.7451C51.0082 33.7451 49.5774 34.3378 48.5225 35.3926C47.4676 36.4475 46.875 37.8783 46.875 39.3701Z" stroke="#FB471E" stroke-width="3" stroke-linecap="round" stroke-linejoin="round"/>
<path d="M28.125 52.4951C28.125 53.987 28.7176 55.4177 29.7725 56.4726C30.8274 57.5275 32.2582 58.1201 33.75 58.1201C35.2418 58.1201 36.6726 57.5275 37.7275 56.4726C38.7824 55.4177 39.375 53.987 39.375 52.4951C39.375 51.0033 38.7824 49.5725 37.7275 48.5176C36.6726 47.4627 35.2418 46.8701 33.75 46.8701C32.2582 46.8701 30.8274 47.4627 29.7725 48.5176C28.7176 49.5725 28.125 51.0033 28.125 52.4951Z" stroke="#FB471E" stroke-width="3" stroke-linecap="round" stroke-linejoin="round"/>
<path d="M1.875 52.4951C1.875 53.2338 2.02049 53.9653 2.30318 54.6477C2.58586 55.3302 3.00019 55.9503 3.52252 56.4726C4.04485 56.9949 4.66495 57.4093 5.34741 57.6919C6.02986 57.9746 6.76131 58.1201 7.5 58.1201C8.23869 58.1201 8.97014 57.9746 9.65259 57.6919C10.3351 57.4093 10.9551 56.9949 11.4775 56.4726C11.9998 55.9503 12.4141 55.3302 12.6968 54.6477C12.9795 53.9653 13.125 53.2338 13.125 52.4951C13.125 51.7564 12.9795 51.025 12.6968 50.3425C12.4141 49.6601 11.9998 49.04 11.4775 48.5176C10.9551 47.9953 10.3351 47.581 9.65259 47.2983C8.97014 47.0156 8.23869 46.8701 7.5 46.8701C6.76131 46.8701 6.02986 47.0156 5.34741 47.2983C4.66495 47.581 4.04485 47.9953 3.52252 48.5176C3.00019 49.04 2.58586 49.6601 2.30318 50.3425C2.02049 51.025 1.875 51.7564 1.875 52.4951Z" stroke="#FB471E" stroke-width="3" stroke-linecap="round" stroke-linejoin="round"/>
<path d="M3.75 13.1201C3.75 14.612 4.34263 16.0427 5.39752 17.0976C6.45242 18.1525 7.88316 18.7451 9.375 18.7451C10.8668 18.7451 12.2976 18.1525 13.3525 17.0976C14.4074 16.0427 15 14.612 15 13.1201C15 11.6283 14.4074 10.1975 13.3525 9.14264C12.2976 8.08775 10.8668 7.49512 9.375 7.49512C7.88316 7.49512 6.45242 8.08775 5.39752 9.14264C4.34263 10.1975 3.75 11.6283 3.75 13.1201Z" stroke="#FB471E" stroke-width="3" stroke-linecap="round" stroke-linejoin="round"/>
<path d="M40.3774 19.62L48.5274 11.47" stroke="#FB471E" stroke-width="3" stroke-linecap="round" stroke-linejoin="round"/>
<path d="M41.9849 30.73L47.6974 36.4425" stroke="#FB471E" stroke-width="3" stroke-linecap="round" stroke-linejoin="round"/>
<path d="M33.75 35.6201V46.8701" stroke="#FB471E" stroke-width="3" stroke-linecap="round" stroke-linejoin="round"/>
<path d="M27.1276 32.8674L11.4751 48.5199" stroke="#FB471E" stroke-width="3" stroke-linecap="round" stroke-linejoin="round"/>
<path d="M25.0024 22.8724L14.0249 16.2849" stroke="#FB471E" stroke-width="3" stroke-linecap="round" stroke-linejoin="round"/>
</g>
<defs>
<clipPath id="clip0_119_521">
<rect width="60" height="60" fill="white"/>
</clipPath>
</defs>
</svg>
