<svg width="60" height="60" viewBox="0 0 60 60" fill="none" xmlns="http://www.w3.org/2000/svg">
<g clip-path="url(#clip0_119_536)">
<path d="M55.8626 26.1996C57.3558 28.8127 57.3558 32.0207 55.8626 34.6339L46.5768 50.8839C45.0635 53.5323 42.2471 55.1668 39.1968 55.1668L20.8032 55.1668C17.7529 55.1668 14.9365 53.5323 13.4232 50.8839L4.13744 34.6339C2.6442 32.0207 2.6442 28.8127 4.13744 26.1996L13.4232 9.94957C14.9365 7.30118 17.7529 5.66675 20.8032 5.66675L23.3333 5.66675L39.1968 5.66675C42.2471 5.66675 45.0635 7.30118 46.5768 9.94957L55.8626 26.1996Z" stroke="#FB471E" stroke-width="3" stroke-linejoin="round"/>
<path d="M16.9141 37.8386V28.2292H17.0703L19.668 32.4089V37.8386H16.9141ZM16.9141 25.9636V24.1667H19.1602L25.6055 34.5574V37.8386H24.2969L16.9141 25.9636ZM22.8516 28.1121V24.1667H25.6055V32.2917H25.4492L22.8516 28.1121Z" fill="#FB471E"/>
<path d="M27.2461 37.8191V24.1667H34.3555V26.9011H30V29.6746H32.5195V32.4285H30V37.8191H27.2461Z" fill="#FB471E"/>
<path d="M35.1562 26.8621V24.1667H43.6133V26.8621H40.7617V37.8386H38.0078V26.8621H35.1562Z" fill="#FB471E"/>
</g>
<defs>
<clipPath id="clip0_119_536">
<rect width="60" height="60" fill="white"/>
</clipPath>
</defs>
</svg>
