<svg width="60" height="60" viewBox="0 0 60 60" fill="none" xmlns="http://www.w3.org/2000/svg">
<path d="M5.625 54.375C4.63044 54.375 3.67661 53.9799 2.97335 53.2766C2.27009 52.5734 1.875 51.6196 1.875 50.625V9.6625C1.8783 8.5927 2.30473 7.56766 3.0612 6.8112C3.81766 6.05473 4.8427 5.6283 5.9125 5.625H54.1075C55.172 5.6283 56.1919 6.05263 56.9447 6.80534C57.6974 7.55805 58.1217 8.57801 58.125 9.6425V50.3375C58.1217 51.4073 57.6953 52.4323 56.9388 53.1888C56.1823 53.9453 55.1573 54.3717 54.0875 54.375H5.625Z" stroke="#FB471E" stroke-width="3" stroke-linecap="round" stroke-linejoin="round"/>
<path d="M12.125 46.875C11.4165 46.8945 10.7292 46.6323 10.2137 46.1459C9.69816 45.6594 9.39657 44.9884 9.375 44.28V15.92C9.39983 15.1574 9.72523 14.4355 10.2802 13.9119C10.8352 13.3883 11.5747 13.1054 12.3375 13.125H47.6775C48.4365 13.1061 49.1722 13.388 49.7243 13.9092C50.2764 14.4304 50.6002 15.1486 50.625 15.9075V44.08C50.6002 44.8426 50.2748 45.5644 49.7198 46.088C49.1648 46.6116 48.4253 46.8945 47.6625 46.875H12.125Z" stroke="#FB471E" stroke-width="3" stroke-linecap="round" stroke-linejoin="round"/>
<path d="M33.75 30H41.25" stroke="#FB471E" stroke-width="3" stroke-linecap="round" stroke-linejoin="round"/>
<path d="M20.625 24.375L26.25 30L20.625 35.625" stroke="#FB471E" stroke-width="3" stroke-linecap="round" stroke-linejoin="round"/>
</svg>
