<svg width="24" height="24" viewBox="0 0 24 24" fill="none" xmlns="http://www.w3.org/2000/svg">
<path d="M4 3.75C4 4.14397 4.0776 4.53407 4.22836 4.89805C4.37913 5.26203 4.6001 5.59274 4.87868 5.87132C5.15726 6.1499 5.48797 6.37087 5.85195 6.52164C6.21593 6.6724 6.60603 6.75 7 6.75C7.39397 6.75 7.78407 6.6724 8.14805 6.52164C8.51203 6.37087 8.84274 6.1499 9.12132 5.87132C9.3999 5.59274 9.62087 5.26203 9.77164 4.89805C9.9224 4.53407 10 4.14397 10 3.75C10 3.35603 9.9224 2.96593 9.77164 2.60195C9.62087 2.23797 9.3999 1.90726 9.12132 1.62868C8.84274 1.3501 8.51203 1.12913 8.14805 0.978361C7.78407 0.827597 7.39397 0.75 7 0.75C6.60603 0.75 6.21593 0.827597 5.85195 0.978361C5.48797 1.12913 5.15726 1.3501 4.87868 1.62868C4.6001 1.90726 4.37913 2.23797 4.22836 2.60195C4.0776 2.96593 4 3.35603 4 3.75Z" stroke="white" stroke-width="1.5" stroke-linecap="round" stroke-linejoin="round"/>
<path d="M4 20.25C4 20.644 4.0776 21.0341 4.22836 21.3981C4.37913 21.762 4.6001 22.0927 4.87868 22.3713C5.15726 22.6499 5.48797 22.8709 5.85195 23.0216C6.21593 23.1724 6.60603 23.25 7 23.25C7.39397 23.25 7.78407 23.1724 8.14805 23.0216C8.51203 22.8709 8.84274 22.6499 9.12132 22.3713C9.3999 22.0927 9.62087 21.762 9.77164 21.3981C9.9224 21.0341 10 20.644 10 20.25C10 19.856 9.9224 19.4659 9.77164 19.1019C9.62087 18.738 9.3999 18.4073 9.12132 18.1287C8.84274 17.8501 8.51203 17.6291 8.14805 17.4784C7.78407 17.3276 7.39397 17.25 7 17.25C6.60603 17.25 6.21593 17.3276 5.85195 17.4784C5.48797 17.6291 5.15726 17.8501 4.87868 18.1287C4.6001 18.4073 4.37913 18.738 4.22836 19.1019C4.0776 19.4659 4 19.856 4 20.25Z" stroke="white" stroke-width="1.5" stroke-linecap="round" stroke-linejoin="round"/>
<path d="M14 6.75C14 7.54565 14.3161 8.30871 14.8787 8.87132C15.4413 9.43393 16.2044 9.75 17 9.75C17.7956 9.75 18.5587 9.43393 19.1213 8.87132C19.6839 8.30871 20 7.54565 20 6.75C20 5.95435 19.6839 5.19129 19.1213 4.62868C18.5587 4.06607 17.7956 3.75 17 3.75C16.2044 3.75 15.4413 4.06607 14.8787 4.62868C14.3161 5.19129 14 5.95435 14 6.75Z" stroke="white" stroke-width="1.5" stroke-linecap="round" stroke-linejoin="round"/>
<path d="M7 6.75V17.25" stroke="white" stroke-width="1.5" stroke-linecap="round" stroke-linejoin="round"/>
<path d="M17 9.75C17 10.8109 16.5786 11.8283 15.8284 12.5784C15.0783 13.3286 14.0609 13.75 13 13.75H10C9.20435 13.75 8.44129 14.0661 7.87868 14.6287C7.31607 15.1913 7 15.9544 7 16.75" stroke="white" stroke-width="1.5" stroke-linecap="round" stroke-linejoin="round"/>
</svg>
