<svg width="24" height="24" viewBox="0 0 24 24" fill="none" xmlns="http://www.w3.org/2000/svg">
<path d="M9 3.75C9 4.54565 9.31607 5.30871 9.87868 5.87132C10.4413 6.43393 11.2044 6.75 12 6.75C12.7956 6.75 13.5587 6.43393 14.1213 5.87132C14.6839 5.30871 15 4.54565 15 3.75C15 2.95435 14.6839 2.19129 14.1213 1.62868C13.5587 1.06607 12.7956 0.75 12 0.75C11.2044 0.75 10.4413 1.06607 9.87868 1.62868C9.31607 2.19129 9 2.95435 9 3.75Z" stroke="white" stroke-width="1.5" stroke-linecap="round" stroke-linejoin="round"/>
<path d="M16 20.25C16 21.0456 16.3161 21.8087 16.8787 22.3713C17.4413 22.9339 18.2044 23.25 19 23.25C19.7956 23.25 20.5587 22.9339 21.1213 22.3713C21.6839 21.8087 22 21.0456 22 20.25C22 19.4544 21.6839 18.6913 21.1213 18.1287C20.5587 17.5661 19.7956 17.25 19 17.25C18.2044 17.25 17.4413 17.5661 16.8787 18.1287C16.3161 18.6913 16 19.4544 16 20.25Z" stroke="white" stroke-width="1.5" stroke-linecap="round" stroke-linejoin="round"/>
<path d="M2 20.25C2 21.0456 2.31607 21.8087 2.87868 22.3713C3.44129 22.9339 4.20435 23.25 5 23.25C5.79565 23.25 6.55871 22.9339 7.12132 22.3713C7.68393 21.8087 8 21.0456 8 20.25C8 19.4544 7.68393 18.6913 7.12132 18.1287C6.55871 17.5661 5.79565 17.25 5 17.25C4.20435 17.25 3.44129 17.5661 2.87868 18.1287C2.31607 18.6913 2 19.4544 2 20.25Z" stroke="white" stroke-width="1.5" stroke-linecap="round" stroke-linejoin="round"/>
<path d="M12 6.75V8.5C12 9.42826 11.6313 10.3185 10.9749 10.9749C10.3185 11.6313 9.42826 12 8.5 12C7.57174 12 6.6815 12.3687 6.02513 13.0251C5.36875 13.6815 5 14.5717 5 15.5V17.25" stroke="white" stroke-width="1.5" stroke-linecap="round" stroke-linejoin="round"/>
<path d="M12 6.75V8.5C12 9.42826 12.3687 10.3185 13.0251 10.9749C13.6815 11.6313 14.5717 12 15.5 12C16.4283 12 17.3185 12.3687 17.9749 13.0251C18.6313 13.6815 19 14.5717 19 15.5V17.25" stroke="white" stroke-width="1.5" stroke-linecap="round" stroke-linejoin="round"/>
</svg>
