<svg width="1433" height="1343" viewBox="0 0 1433 1343" fill="none" xmlns="http://www.w3.org/2000/svg">
<g opacity="0.2" filter="url(#filter0_f_0_1)">
<path d="M593 396.5C593 505.024 505.024 593 396.5 593C287.976 593 200 505.024 200 396.5C200 287.976 287.976 200 396.5 200C505.024 200 593 287.976 593 396.5Z" fill="#0087FA"/>
</g>
<g opacity="0.1" filter="url(#filter1_f_0_1)">
<path d="M1233 812C1233 994.806 1084.81 1143 902 1143C719.194 1143 571 994.806 571 812C571 629.194 719.194 481 902 481C1084.81 481 1233 629.194 1233 812Z" fill="#22AD01"/>
</g>
<defs>
<filter id="filter0_f_0_1" x="0" y="0" width="793" height="793" filterUnits="userSpaceOnUse" color-interpolation-filters="sRGB">
<feFlood flood-opacity="0" result="BackgroundImageFix"/>
<feBlend mode="normal" in="SourceGraphic" in2="BackgroundImageFix" result="shape"/>
<feGaussianBlur stdDeviation="100" result="effect1_foregroundBlur_0_1"/>
</filter>
<filter id="filter1_f_0_1" x="371" y="281" width="1062" height="1062" filterUnits="userSpaceOnUse" color-interpolation-filters="sRGB">
<feFlood flood-opacity="0" result="BackgroundImageFix"/>
<feBlend mode="normal" in="SourceGraphic" in2="BackgroundImageFix" result="shape"/>
<feGaussianBlur stdDeviation="100" result="effect1_foregroundBlur_0_1"/>
</filter>
</defs>
</svg>
